<svg width="305" height="31" viewBox="0 0 305 31" fill="none" xmlns="http://www.w3.org/2000/svg">
<g clip-path="url(#clip0_22113_999)">
<path d="M5.21811 19.2081C4.87524 19.1914 4.49896 19.1731 4.11719 19.1287C5.40236 19.9438 6.84088 20.4867 8.34418 20.7238C8.87244 20.8295 9.40619 20.9073 9.94269 20.957C9.95322 20.957 9.96352 20.9588 9.97427 20.9593C10.3801 20.9959 10.779 21.0172 11.1686 21.0158C11.9971 21.0158 13.0807 21.0051 13.6449 20.5247C13.7529 20.423 14.3635 19.749 14.5105 19.5563C14.5872 19.3963 14.738 19.2846 14.9135 19.258C15.0889 19.2312 15.266 19.293 15.3869 19.423V19.4235L15.388 19.4247C15.5308 19.5787 15.6622 19.7442 15.7931 19.9101C15.9753 20.1644 16.1893 20.3944 16.4299 20.5942C16.8792 20.8428 17.385 20.9714 17.8986 20.9678L18.0071 20.9778C19.9233 21.1101 21.8459 20.8401 23.6516 20.185C24.4369 19.9357 25.1837 19.5785 25.8703 19.123L25.8974 19.1042C25.2959 19.1804 24.6907 19.2255 24.0846 19.2395C23.2023 19.269 22.2888 19.2594 21.3145 19.2136H21.3071C21.1446 19.2058 20.9844 19.1997 20.8178 19.1898C20.4365 19.1848 20.035 19.1479 19.6425 19.107L19.36 19.0779C18.859 19.0285 18.3589 18.9554 17.8611 18.8824C17.6061 18.8531 17.3553 18.7964 17.1126 18.7126C16.9739 18.6604 16.8407 18.595 16.7144 18.5176C16.1813 18.1734 15.6103 17.8921 15.0126 17.679L14.9927 17.6719C14.5876 17.8202 14.1974 18.0065 13.8275 18.2285C13.6636 18.3198 13.5013 18.4102 13.34 18.494C13.2489 18.5414 13.1566 18.5888 13.0623 18.6309C12.5345 18.8344 11.9781 18.955 11.4133 18.9879L11.126 19.02C10.6284 19.0788 10.1121 19.1271 9.54695 19.166C8.18419 19.2672 6.81662 19.2853 5.45157 19.2203L5.21811 19.2081Z" fill="white"/>
<path d="M14.0226 24.6065H15.9619C16.8399 24.6065 17.1423 24.219 17.8017 23.2638C18.0798 22.8528 18.3801 22.457 18.7007 22.0782C18.4334 22.0721 18.1656 22.0663 17.9065 22.0421L17.7994 22.0325C17.0885 22.0274 16.3924 21.8265 15.7884 21.4516C15.4922 21.2172 15.229 20.9446 15.0052 20.6406C14.6884 21.0045 14.3439 21.3325 14.3375 21.338C13.5067 22.0453 12.2511 22.0821 11.2891 22.0842C11.6077 22.4612 11.9061 22.8551 12.1828 23.2638C12.8425 24.219 13.1448 24.6065 14.0226 24.6065Z" fill="white"/>
<path d="M14.9936 11.7512C19.6747 11.7512 24.0291 10.5116 27.1756 8.32257C26.7913 8.13329 26.4626 7.84695 26.222 7.49219C25.8149 8.13741 25.1072 8.53108 24.3443 8.5368C23.5812 8.54276 22.8678 8.16006 22.4508 7.52126C22.0372 8.15549 21.3308 8.53772 20.5735 8.53703C19.8161 8.53612 19.1107 8.15251 18.6982 7.51736C18.2869 8.15251 17.5822 8.53612 16.8255 8.53703C16.0688 8.53772 15.3632 8.15549 14.9508 7.52126C14.5374 8.1548 13.8322 8.53703 13.0758 8.53703C12.3191 8.53703 11.6139 8.1548 11.2008 7.52126C10.7874 8.1548 10.0822 8.53703 9.32576 8.53703C8.56908 8.53703 7.86389 8.1548 7.45076 7.52126C7.02756 8.14381 6.32855 8.52261 5.57576 8.53703C4.83922 8.52399 4.15257 8.16327 3.72411 7.56429C3.48355 7.88655 3.16792 8.14519 2.80469 8.31799C5.9525 10.51 10.3097 11.7512 14.9936 11.7512ZM22.4936 9.07262C22.7895 9.07262 23.0291 9.31248 23.0291 9.60843C23.0291 9.90414 22.7895 10.144 22.4936 10.144C22.1976 10.144 21.9577 9.90414 21.9577 9.60843C21.9577 9.31248 22.1976 9.07262 22.4936 9.07262ZM18.7436 9.07262C19.0395 9.07262 19.2791 9.31248 19.2791 9.60843C19.2791 9.90414 19.0395 10.144 18.7436 10.144C18.4476 10.144 18.2077 9.90414 18.2077 9.60843C18.2077 9.31248 18.4476 9.07262 18.7436 9.07262ZM14.9936 9.07262C15.2895 9.07262 15.5291 9.31248 15.5291 9.60843C15.5291 9.90414 15.2895 10.144 14.9936 10.144C14.6976 10.144 14.4577 9.90414 14.4577 9.60843C14.4577 9.31248 14.6976 9.07262 14.9936 9.07262ZM11.2436 9.07262C11.5395 9.07262 11.7791 9.31248 11.7791 9.60843C11.7791 9.90414 11.5395 10.144 11.2436 10.144C10.9476 10.144 10.7077 9.90414 10.7077 9.60843C10.7077 9.31248 10.9476 9.07262 11.2436 9.07262ZM7.49356 9.07262C7.78951 9.07262 8.02914 9.31248 8.02914 9.60843C8.02914 9.90414 7.78951 10.144 7.49356 10.144C7.19762 10.144 6.95775 9.90414 6.95775 9.60843C6.95775 9.31248 7.19762 9.07262 7.49356 9.07262Z" fill="white"/>
<path d="M5.5771 7.46593C6.18707 7.42702 6.69885 6.99077 6.83412 6.39453H4.32031C4.45741 6.98962 4.96782 7.42473 5.5771 7.46593Z" fill="white"/>
<path d="M17.4141 25.2758L19.2801 25.8088V23.0547C19.0565 23.3383 18.864 23.6136 18.6855 23.872C18.3584 24.4191 17.9263 24.896 17.4141 25.2758Z" fill="white"/>
<path d="M10.707 23.0547V25.8095L12.5731 25.2764C12.0611 24.8967 11.629 24.4195 11.3017 23.8725C11.1229 23.6138 10.9302 23.3378 10.707 23.0547Z" fill="white"/>
<path d="M26.793 18.0599L26.7934 18.0595L26.7955 18.0508L26.793 18.0599Z" fill="white"/>
<path d="M14.9956 0.5C13.4225 0.5 11.9128 2.53362 11.3477 5.3214H18.6433C18.0784 2.53362 16.5685 0.5 14.9956 0.5Z" fill="white"/>
<path d="M20.5782 7.46593C21.1882 7.42702 21.7 6.99077 21.8353 6.39453H19.3203C19.457 6.99031 19.9683 7.42587 20.5782 7.46593Z" fill="white"/>
<path d="M24.3255 7.46593C24.9373 7.42816 25.4513 6.99214 25.5882 6.39453H23.0625C23.1994 6.99214 23.7134 7.42839 24.3255 7.46593Z" fill="white"/>
<path d="M13.0776 7.46593C13.6875 7.42702 14.1993 6.99077 14.3346 6.39453H11.8203C11.9556 6.99077 12.4674 7.42702 13.0776 7.46593Z" fill="white"/>
<path d="M16.8276 7.46593C17.4373 7.42587 17.9484 6.99031 18.0846 6.39453H15.5703C15.7056 6.99077 16.2174 7.42702 16.8276 7.46593Z" fill="white"/>
<path d="M9.32756 7.46593C9.93753 7.42702 10.4493 6.99077 10.5846 6.39453H8.07031C8.20558 6.99077 8.71736 7.42702 9.32756 7.46593Z" fill="white"/>
<path d="M16.2031 26.0469L18.8366 30.1864L21.4708 27.5522L16.2031 26.0469Z" fill="white"/>
<path d="M14.457 30.4997C14.457 30.2037 14.6969 29.9639 14.9928 29.9639C15.2887 29.9639 15.5284 30.2037 15.5284 30.4997H17.7668L14.9928 26.1406L12.2188 30.4997H14.457ZM14.9928 27.8211C15.2887 27.8211 15.5284 28.0609 15.5284 28.3569C15.5284 28.6526 15.2887 28.8925 14.9928 28.8925C14.6969 28.8925 14.457 28.6526 14.457 28.3569C14.457 28.0609 14.6969 27.8211 14.9928 27.8211Z" fill="white"/>
<path d="M20.8935 29.6445L20.0391 30.4989H20.8855L20.8935 29.6445Z" fill="white"/>
<path d="M13.7833 26.0469L8.51562 27.5522L11.1498 30.1864L13.7833 26.0469Z" fill="white"/>
<path d="M8.16065 16.4969C8.13501 16.0766 8.07779 15.6587 7.98944 15.2469C7.86173 14.6072 7.76972 13.9608 7.71387 13.3108C7.63834 13.2122 7.54678 13.1268 7.44287 13.0586C7.34651 13.7029 7.34216 14.3575 7.42983 15.0032C7.54335 15.5548 7.79489 16.0686 8.16065 16.4969Z" fill="white"/>
<path d="M28.1203 7.46593C28.1897 7.46318 28.2588 7.45357 28.3263 7.43686C28.7078 7.11345 29.0679 6.76532 29.4036 6.39453H26.8633C26.9986 6.99077 27.5101 7.42679 28.1203 7.46593Z" fill="white"/>
<path d="M9.10567 29.6562L9.09766 30.5011H9.95047L9.10567 29.6562Z" fill="white"/>
<path d="M22.6418 25.6498C22.0812 25.5406 21.5417 25.3434 21.043 25.065C20.7894 24.9318 20.558 24.7911 20.3516 24.6562V26.1158L22.6415 26.77C22.8242 26.8222 22.9654 26.967 23.013 27.1506C23.0606 27.3344 23.0073 27.5296 22.8732 27.6638L21.9736 28.5633L21.9553 30.4994H28.3871V28.6047C28.3901 28.531 28.3727 28.4577 28.337 28.3932C28.0621 28.1222 27.7298 27.9167 27.3647 27.7917C27.2226 27.7274 27.0876 27.6667 26.9701 27.6065C26.2814 27.2563 25.5916 26.9007 24.9116 26.5356C24.2089 26.1177 23.4419 25.8183 22.6418 25.6498Z" fill="white"/>
<path d="M1.66306 7.43686C1.73058 7.45357 1.7997 7.46318 1.86928 7.46593C2.47925 7.42564 2.9908 6.99031 3.12836 6.39453H0.585938C0.921707 6.76532 1.28151 7.11345 1.66306 7.43686Z" fill="white"/>
<path d="M1.65354 28.3918C1.61532 28.4616 1.59769 28.5406 1.60227 28.6198V30.4996H8.02744L8.0453 28.5932L7.11626 27.664C6.98191 27.5299 6.92881 27.3346 6.97619 27.1508C7.0238 26.9673 7.16524 26.8224 7.34766 26.7702L9.63786 26.1161V24.6562C9.43049 24.7917 9.19772 24.9332 8.94205 25.0673C8.44561 25.3443 7.90842 25.5409 7.35041 25.6494C6.55138 25.8174 5.78532 26.1158 5.08334 26.5329C4.39761 26.9009 3.70798 27.2566 3.01814 27.6072C2.90163 27.667 2.76659 27.7278 2.62469 27.7919C2.26008 27.9167 1.9282 28.1217 1.65354 28.3918Z" fill="white"/>
<path d="M2.40625 18.6445L2.41678 18.6505V18.6503L2.40625 18.6445Z" fill="white"/>
<path d="M21.2251 13.0154C21.248 12.7082 21.2603 12.3912 21.2683 12.0664C19.2153 12.5732 17.1082 12.8272 14.9935 12.8231C12.8789 12.8272 10.7716 12.5732 8.71875 12.0664C8.72653 12.391 8.73889 12.708 8.76155 13.014C8.81053 13.6972 8.90392 14.3765 9.04124 15.0476C9.16507 15.6031 9.23167 16.17 9.23991 16.7393C9.23991 17.0247 9.22916 17.2991 9.21313 17.5687C9.21313 17.5852 9.21313 17.6008 9.2113 17.6172L9.20604 17.745C9.20078 17.8706 9.19597 17.9919 9.19231 18.1125C9.28683 18.1066 9.37701 18.1034 9.47292 18.0968C10.0197 18.0588 10.5191 18.0128 10.9989 17.9555L11.2987 17.9223C11.7523 17.8981 12.2003 17.8068 12.6271 17.6514C12.7006 17.6186 12.7734 17.5806 12.8462 17.5429C12.9984 17.4641 13.1515 17.3785 13.3058 17.2925C13.7365 17.0334 14.1922 16.8182 14.666 16.6502C14.7651 16.6163 14.8688 16.5969 14.9736 16.593C15.1055 16.5962 15.2359 16.6207 15.36 16.6651C16.0315 16.9043 16.6738 17.219 17.2739 17.6037C17.3414 17.6454 17.4131 17.6806 17.4874 17.7086C17.6591 17.7646 17.8363 17.8026 18.0159 17.8223C18.4975 17.8928 18.9807 17.9635 19.4652 18.0116L19.7545 18.0414C20.1015 18.0775 20.4583 18.1132 20.7957 18.1169C20.7918 17.9947 20.7875 17.8722 20.7817 17.745L20.7762 17.6168C20.7746 17.6008 20.7746 17.5859 20.7744 17.5701C20.7584 17.3012 20.7476 17.0283 20.7476 16.7393C20.7559 16.17 20.8223 15.6031 20.9463 15.0476C21.0832 14.377 21.1763 13.6981 21.2251 13.0154Z" fill="white"/>
<path d="M22.545 13.0547C22.4434 13.1243 22.3525 13.2087 22.2756 13.3053C22.22 13.9569 22.1277 14.6051 21.9996 15.2467C21.911 15.6596 21.8538 16.0787 21.8281 16.5003C22.2007 16.0681 22.4537 15.5461 22.5615 14.9858C22.6478 14.3444 22.6423 13.6942 22.545 13.0547Z" fill="white"/>
</g>
<path d="M40.6067 9.32L39.0467 9.04V7.64H49.9867L50.2467 11.18H48.6667L47.9667 9.16L44.0267 8.96V14.16L46.4667 14.1L46.8267 12.46H48.2067V17.48H46.8267L46.4867 15.74L44.0267 15.68V21.12L48.4067 20.84L49.6267 18.26L51.3267 18.74L50.8467 22.5H39.0667V21.18L40.6067 20.98V9.32ZM53.4113 8.06L52.0113 7.8V6.58L56.0113 6.1H56.0713L56.6513 6.52V21L57.9513 21.18V22.5H52.1313V21.18L53.4113 21V8.06ZM61.6863 9.66C61.1663 9.66 60.7463 9.50667 60.4263 9.2C60.1063 8.89333 59.9463 8.5 59.9463 8.02C59.9463 7.46 60.1196 7 60.4663 6.64C60.8263 6.28 61.3063 6.1 61.9063 6.1C62.5063 6.1 62.9663 6.25333 63.2863 6.56C63.6063 6.86667 63.7663 7.26 63.7663 7.74C63.7663 8.31333 63.5863 8.78 63.2263 9.14C62.8663 9.48667 62.3596 9.66 61.7063 9.66H61.6863ZM60.4663 13.48L59.1263 13.1V11.6L63.1263 11.12H63.1663L63.7863 11.54V21L64.9863 21.18V22.5H59.2263V21.18L60.4663 21V13.48ZM69.7552 22.68C68.8752 22.68 68.2218 22.48 67.7952 22.08C67.3818 21.6667 67.1752 21.0333 67.1752 20.18V13.06H65.9552V11.9L66.3552 11.74C66.6752 11.6333 66.9552 11.52 67.1952 11.4C67.4618 11.1467 67.6752 10.8133 67.8352 10.4C68.0352 9.92 68.2552 9.24667 68.4952 8.38H70.3552L70.4752 11.38H73.3352V13.06H70.5152V18.36C70.5152 19.0933 70.5352 19.6067 70.5752 19.9C70.6152 20.1933 70.6885 20.3867 70.7952 20.48C70.9152 20.56 71.1285 20.6 71.4352 20.6C72.0618 20.6 72.6552 20.4933 73.2152 20.28L73.6352 21.54C73.2618 21.8467 72.7085 22.1133 71.9752 22.34C71.2418 22.5667 70.5018 22.68 69.7552 22.68ZM79.6992 22.72C77.8726 22.72 76.5192 22.2067 75.6392 21.18C74.7592 20.14 74.3192 18.7267 74.3192 16.94C74.3192 15.7267 74.5459 14.68 74.9992 13.8C75.4526 12.92 76.0859 12.2533 76.8992 11.8C77.7259 11.3333 78.6926 11.1 79.7992 11.1C81.1992 11.1 82.2659 11.4533 82.9992 12.16C83.7459 12.8667 84.1326 13.8667 84.1592 15.16C84.1592 16.0133 84.0992 16.7 83.9792 17.22H77.7192C77.7859 18.3533 78.0592 19.22 78.5392 19.82C79.0326 20.4067 79.7192 20.7 80.5992 20.7C81.0926 20.7 81.6059 20.62 82.1392 20.46C82.6859 20.2867 83.1259 20.0933 83.4592 19.88L84.0192 21.1C83.6726 21.4867 83.0792 21.8533 82.2392 22.2C81.4126 22.5467 80.5659 22.72 79.6992 22.72ZM80.9792 15.9L80.9992 15.06C80.9992 14.22 80.8859 13.58 80.6592 13.14C80.4326 12.7 80.0459 12.48 79.4992 12.48C78.9392 12.48 78.5059 12.7267 78.1992 13.22C77.8926 13.7 77.7259 14.5933 77.6992 15.9H80.9792ZM91.7595 9.32L90.2595 9.04V7.64H97.0795V9.04L95.1795 9.32V20.94L98.9395 20.74L100.24 16.78L102.12 17.02L101.54 22.5H90.2195V21.18L91.7595 20.98V9.32ZM112.192 22.7C111.712 22.7 111.365 22.6 111.152 22.4C110.939 22.1867 110.832 21.88 110.832 21.48V21.04C110.512 21.48 110.032 21.8733 109.392 22.22C108.752 22.5533 108.105 22.72 107.452 22.72C106.145 22.72 105.212 22.4 104.652 21.76C104.105 21.1067 103.832 20.02 103.832 18.5V12.94L102.892 12.68V11.4L106.652 11.14H106.672L107.112 11.42V18.58C107.112 19.4467 107.219 20.0533 107.432 20.4C107.645 20.7333 108.025 20.9 108.572 20.9C109.319 20.9 109.945 20.6467 110.452 20.14V12.94L109.212 12.64V11.4L113.172 11.14H113.232L113.712 11.42V21.12H114.772V22.4C114.319 22.4933 113.899 22.5667 113.512 22.62C113.139 22.6733 112.699 22.7 112.192 22.7ZM119.583 17.08L116.323 12.88L115.323 12.66V11.38H121.563V12.66L120.323 12.88L121.723 14.9L122.223 15.72L122.723 14.88L124.163 12.88L122.883 12.66V11.38H127.303V12.66L126.183 12.88L123.143 16.64L126.543 21L127.623 21.2V22.5H121.423V21.2L122.523 21L121.163 18.86L120.563 18L120.103 18.86L118.663 21L120.123 21.2V22.5H115.223V21.2L116.463 21L119.583 17.08ZM137.27 22.7C136.79 22.7 136.443 22.6 136.23 22.4C136.017 22.1867 135.91 21.88 135.91 21.48V21.04C135.59 21.48 135.11 21.8733 134.47 22.22C133.83 22.5533 133.183 22.72 132.53 22.72C131.223 22.72 130.29 22.4 129.73 21.76C129.183 21.1067 128.91 20.02 128.91 18.5V12.94L127.97 12.68V11.4L131.73 11.14H131.75L132.19 11.42V18.58C132.19 19.4467 132.297 20.0533 132.51 20.4C132.723 20.7333 133.103 20.9 133.65 20.9C134.397 20.9 135.023 20.6467 135.53 20.14V12.94L134.29 12.64V11.4L138.25 11.14H138.31L138.79 11.42V21.12H139.85V22.4C139.397 22.4933 138.977 22.5667 138.59 22.62C138.217 22.6733 137.777 22.7 137.27 22.7ZM141.141 21.18L142.361 21V13.48L141.181 13.12V11.56L144.501 11.12H144.561L145.121 11.54V12.02L145.061 13.68H145.121C145.215 13.3733 145.428 13.02 145.761 12.62C146.095 12.2067 146.515 11.8533 147.021 11.56C147.541 11.2533 148.101 11.1 148.701 11.1C149.048 11.1 149.315 11.1467 149.501 11.24V14.72C149.288 14.56 149.055 14.4333 148.801 14.34C148.561 14.2467 148.248 14.2 147.861 14.2C147.381 14.2 146.948 14.2667 146.561 14.4C146.175 14.52 145.868 14.66 145.641 14.82V21L147.841 21.2V22.5H141.141V21.18ZM152.691 27.48C152.411 27.48 152.117 27.46 151.811 27.42C151.517 27.38 151.304 27.3267 151.171 27.26V24.86C151.264 24.9267 151.464 24.9867 151.771 25.04C152.077 25.1067 152.357 25.14 152.611 25.14C153.291 25.14 153.831 24.9267 154.231 24.5C154.631 24.0733 154.997 23.4067 155.331 22.5H154.171L150.431 12.9L149.551 12.66V11.38H155.451V12.66L154.051 12.9L155.711 18.22L156.311 20.24L156.791 18.22L158.331 12.88L157.131 12.66V11.38H161.651V12.66L160.691 12.88C160.131 14.6 159.444 16.62 158.631 18.94C157.831 21.26 157.384 22.5267 157.291 22.74C156.891 23.8467 156.484 24.7333 156.071 25.4C155.671 26.08 155.197 26.5933 154.651 26.94C154.104 27.3 153.451 27.48 152.691 27.48ZM171.642 9.12L169.142 9.22L168.302 13.68H166.422L166.742 7.64H179.922L180.182 13.68H178.402L177.522 9.22L175.102 9.12V20.96L177.882 21.18V22.5H169.102V21.18L171.642 20.96V9.12ZM181.494 17C181.494 15.72 181.747 14.64 182.254 13.76C182.76 12.8667 183.44 12.2 184.294 11.76C185.16 11.32 186.107 11.1 187.134 11.1C188.814 11.1 190.127 11.6067 191.074 12.62C192.034 13.62 192.514 15.02 192.514 16.82C192.514 18.14 192.26 19.24 191.754 20.12C191.247 21 190.567 21.6533 189.714 22.08C188.86 22.5067 187.907 22.72 186.854 22.72C185.187 22.72 183.874 22.22 182.914 21.22C181.967 20.2067 181.494 18.8 181.494 17ZM187.054 21.32C187.694 21.32 188.167 20.98 188.474 20.3C188.794 19.6067 188.954 18.5267 188.954 17.06C188.954 15.5 188.8 14.3533 188.494 13.62C188.2 12.8733 187.7 12.5 186.994 12.5C185.687 12.5 185.034 13.92 185.034 16.76C185.034 18.3067 185.194 19.4533 185.514 20.2C185.834 20.9467 186.347 21.32 187.054 21.32ZM203.286 22.7C202.806 22.7 202.459 22.6 202.246 22.4C202.032 22.1867 201.926 21.88 201.926 21.48V21.04C201.606 21.48 201.126 21.8733 200.486 22.22C199.846 22.5533 199.199 22.72 198.546 22.72C197.239 22.72 196.306 22.4 195.746 21.76C195.199 21.1067 194.926 20.02 194.926 18.5V12.94L193.986 12.68V11.4L197.746 11.14H197.766L198.206 11.42V18.58C198.206 19.4467 198.312 20.0533 198.526 20.4C198.739 20.7333 199.119 20.9 199.666 20.9C200.412 20.9 201.039 20.6467 201.546 20.14V12.94L200.306 12.64V11.4L204.266 11.14H204.326L204.806 11.42V21.12H205.866V22.4C205.412 22.4933 204.992 22.5667 204.606 22.62C204.232 22.6733 203.792 22.7 203.286 22.7ZM207.157 21.18L208.377 21V13.48L207.197 13.12V11.56L210.517 11.12H210.577L211.137 11.54V12.02L211.077 13.68H211.137C211.23 13.3733 211.444 13.02 211.777 12.62C212.11 12.2067 212.53 11.8533 213.037 11.56C213.557 11.2533 214.117 11.1 214.717 11.1C215.064 11.1 215.33 11.1467 215.517 11.24V14.72C215.304 14.56 215.07 14.4333 214.817 14.34C214.577 14.2467 214.264 14.2 213.877 14.2C213.397 14.2 212.964 14.2667 212.577 14.4C212.19 14.52 211.884 14.66 211.657 14.82V21L213.857 21.2V22.5H207.157V21.18ZM219.246 20.84C219.34 20.9867 219.553 21.12 219.886 21.24C220.233 21.36 220.58 21.42 220.926 21.42C221.473 21.42 221.886 21.3067 222.166 21.08C222.46 20.84 222.606 20.5333 222.606 20.16C222.606 19.76 222.42 19.4333 222.046 19.18C221.673 18.9133 221.06 18.5933 220.206 18.22L219.446 17.88C218.58 17.4933 217.926 17.0267 217.486 16.48C217.06 15.92 216.846 15.2133 216.846 14.36C216.846 13.7467 217.026 13.2 217.386 12.72C217.746 12.2267 218.266 11.84 218.946 11.56C219.626 11.28 220.426 11.14 221.346 11.14C221.986 11.14 222.54 11.18 223.006 11.26C223.473 11.34 223.946 11.44 224.426 11.56C224.746 11.6533 224.986 11.7067 225.146 11.72V14.44H223.366L222.846 12.9C222.78 12.78 222.62 12.6733 222.366 12.58C222.113 12.4733 221.826 12.42 221.506 12.42C221 12.42 220.6 12.5333 220.306 12.76C220.013 12.9733 219.866 13.2667 219.866 13.64C219.866 14.0667 220.033 14.4067 220.366 14.66C220.7 14.9 221.233 15.1867 221.966 15.52L222.386 15.7C223.466 16.1533 224.313 16.6467 224.926 17.18C225.54 17.7 225.846 18.42 225.846 19.34C225.846 20.3267 225.453 21.14 224.666 21.78C223.88 22.4067 222.72 22.72 221.186 22.72C220.48 22.72 219.853 22.66 219.306 22.54C218.76 22.4333 218.16 22.2867 217.506 22.1L216.846 21.92V19.26H218.746L219.246 20.84ZM234.359 9.32L232.239 9.04V7.64H239.039L241.159 16L241.639 18.22L242.039 16L244.139 7.64H250.899V9.04L248.719 9.32L250.319 20.96L251.859 21.18V22.5H245.119V21.18L246.819 20.96L245.979 12.34L245.619 8.82L244.919 12.02L242.299 21.92H239.679L236.879 12.3L235.959 8.8L235.719 12.34L234.979 20.96L237.019 21.18V22.5H231.239V21.18L232.899 20.98L234.359 9.32ZM257.902 22.72C256.076 22.72 254.722 22.2067 253.842 21.18C252.962 20.14 252.522 18.7267 252.522 16.94C252.522 15.7267 252.749 14.68 253.202 13.8C253.656 12.92 254.289 12.2533 255.102 11.8C255.929 11.3333 256.896 11.1 258.002 11.1C259.402 11.1 260.469 11.4533 261.202 12.16C261.949 12.8667 262.336 13.8667 262.362 15.16C262.362 16.0133 262.302 16.7 262.182 17.22H255.922C255.989 18.3533 256.262 19.22 256.742 19.82C257.236 20.4067 257.922 20.7 258.802 20.7C259.296 20.7 259.809 20.62 260.342 20.46C260.889 20.2867 261.329 20.0933 261.662 19.88L262.222 21.1C261.876 21.4867 261.282 21.8533 260.442 22.2C259.616 22.5467 258.769 22.72 257.902 22.72ZM259.182 15.9L259.202 15.06C259.202 14.22 259.089 13.58 258.862 13.14C258.636 12.7 258.249 12.48 257.702 12.48C257.142 12.48 256.709 12.7267 256.402 13.22C256.096 13.7 255.929 14.5933 255.902 15.9H259.182ZM267.357 17.08L264.097 12.88L263.097 12.66V11.38H269.337V12.66L268.097 12.88L269.497 14.9L269.997 15.72L270.497 14.88L271.937 12.88L270.657 12.66V11.38H275.077V12.66L273.957 12.88L270.917 16.64L274.317 21L275.397 21.2V22.5H269.197V21.2L270.297 21L268.937 18.86L268.337 18L267.877 18.86L266.437 21L267.897 21.2V22.5H262.997V21.2L264.237 21L267.357 17.08ZM278.464 9.66C277.944 9.66 277.524 9.50667 277.204 9.2C276.884 8.89333 276.724 8.5 276.724 8.02C276.724 7.46 276.897 7 277.244 6.64C277.604 6.28 278.084 6.1 278.684 6.1C279.284 6.1 279.744 6.25333 280.064 6.56C280.384 6.86667 280.544 7.26 280.544 7.74C280.544 8.31333 280.364 8.78 280.004 9.14C279.644 9.48667 279.137 9.66 278.484 9.66H278.464ZM277.244 13.48L275.904 13.1V11.6L279.904 11.12H279.944L280.564 11.54V21L281.764 21.18V22.5H276.004V21.18L277.244 21V13.48ZM282.933 17.02C282.933 15.8333 283.173 14.7933 283.653 13.9C284.133 13.0067 284.806 12.32 285.673 11.84C286.539 11.3467 287.539 11.1 288.673 11.1C289.233 11.1 289.713 11.14 290.113 11.22C290.526 11.2867 290.946 11.3867 291.373 11.52C291.759 11.6267 291.999 11.6867 292.093 11.7L291.953 15.32H289.933L289.413 13.02C289.373 12.8467 289.259 12.7267 289.073 12.66C288.899 12.58 288.686 12.54 288.433 12.54C287.806 12.54 287.313 12.8467 286.953 13.46C286.606 14.0733 286.433 15.0933 286.433 16.52C286.433 17.88 286.653 18.9267 287.093 19.66C287.546 20.38 288.153 20.74 288.913 20.74C289.899 20.74 290.806 20.4867 291.633 19.98L292.173 21.16C291.853 21.52 291.326 21.8733 290.593 22.22C289.859 22.5533 289.046 22.72 288.153 22.72C286.406 22.72 285.099 22.2067 284.233 21.18C283.366 20.14 282.933 18.7533 282.933 17.02ZM293.681 17C293.681 15.72 293.935 14.64 294.441 13.76C294.948 12.8667 295.628 12.2 296.481 11.76C297.348 11.32 298.295 11.1 299.321 11.1C301.001 11.1 302.315 11.6067 303.261 12.62C304.221 13.62 304.701 15.02 304.701 16.82C304.701 18.14 304.448 19.24 303.941 20.12C303.435 21 302.755 21.6533 301.901 22.08C301.048 22.5067 300.095 22.72 299.041 22.72C297.375 22.72 296.061 22.22 295.101 21.22C294.155 20.2067 293.681 18.8 293.681 17ZM299.241 21.32C299.881 21.32 300.355 20.98 300.661 20.3C300.981 19.6067 301.141 18.5267 301.141 17.06C301.141 15.5 300.988 14.3533 300.681 13.62C300.388 12.8733 299.888 12.5 299.181 12.5C297.875 12.5 297.221 13.92 297.221 16.76C297.221 18.3067 297.381 19.4533 297.701 20.2C298.021 20.9467 298.535 21.32 299.241 21.32Z" fill="white"/>
<defs>
<clipPath id="clip0_22113_999">
<rect width="30" height="30" fill="white" transform="translate(0 0.5)"/>
</clipPath>
</defs>
</svg>
