<svg width="24" height="24" viewBox="0 0 24 24" fill="none" xmlns="http://www.w3.org/2000/svg">
<path d="M20.265 6.424L21.4641 5.67458C21.4876 5.77946 21.5 5.88838 21.5 6V18C21.5 18.8239 20.8239 19.5 20 19.5H4C3.17614 19.5 2.5 18.8239 2.5 18V6C2.5 5.88838 2.51241 5.77946 2.53592 5.67458L3.735 6.424L11.735 11.424L12 11.5896L12.265 11.424L20.265 6.424ZM21.4135 5.5H20H4H2.58648C2.79395 4.91938 3.35116 4.5 4 4.5H20C20.6488 4.5 21.2061 4.91938 21.4135 5.5ZM20 18.5H20.5V18V8V7.09788L19.735 7.576L12 12.4104L4.265 7.576L3.5 7.09788V8V18V18.5H4H20Z" fill="white" stroke="#414141"/>
</svg>
