<svg width="22" height="22" viewBox="0 0 22 22" fill="none" xmlns="http://www.w3.org/2000/svg">
<path d="M1.03256 1.81971L1.03255 1.81969C0.863084 1.29297 1.41132 0.821673 1.90725 1.06931C1.90729 1.06933 1.90733 1.06935 1.90738 1.06937L20.6527 10.4405C20.6527 10.4406 20.6527 10.4406 20.6528 10.4406C21.1134 10.6709 21.1141 11.328 20.6524 11.5593L1.90725 20.9304L1.90722 20.9304C1.41205 21.178 0.863083 20.7067 1.03255 20.18L1.03256 20.18L3.93656 11.153L3.98582 10.9998L3.93656 10.8467L1.03256 1.81971ZM4.57053 11.3026L4.38244 11.3966L4.31808 11.5968L1.78233 19.4838L1.41841 20.6157L2.4819 20.0841L19.7597 11.4471L20.6543 10.9998L19.7596 10.5526L2.48114 1.9156L1.41724 1.38379L1.78162 2.51601L4.31962 10.4023L4.43124 10.7491H4.79558H13.2481C13.3144 10.7491 13.378 10.7754 13.4249 10.8223C13.4717 10.8692 13.4981 10.9328 13.4981 10.9991C13.4981 11.0654 13.4717 11.129 13.4249 11.1759C13.378 11.2227 13.3144 11.2491 13.2481 11.2491H4.79558H4.67758L4.57203 11.3018L4.57053 11.3026Z" fill="white" stroke="white"/>
</svg>
